<svg width="24" height="24" viewBox="0 0 24 24" fill="none" xmlns="http://www.w3.org/2000/svg">
<path fill-rule="evenodd" clip-rule="evenodd" d="M15.2148 3.10618C13.1489 2.80313 10.9109 3.90873 10.5186 6.46371C10.4883 6.66104 10.3495 6.82455 10.1598 6.88658C9.97 6.94861 9.76148 6.89861 9.62047 6.75726C9.35347 6.48961 8.80195 6.37225 8.26882 6.55055C7.77417 6.71598 7.40464 7.09992 7.40464 7.72483C7.40464 8.01722 7.16761 8.25425 6.87522 8.25425C5.90415 8.25425 5.21446 8.61399 4.76205 9.12417C4.30091 9.64418 4.05885 10.3527 4.05884 11.0787C4.05883 11.8047 4.30086 12.5132 4.76204 13.0332C5.21449 13.5433 5.90433 13.9031 6.87581 13.9031H9.10388C9.39628 13.9031 9.6333 14.1401 9.6333 14.4325C9.6333 14.7249 9.39628 14.962 9.10388 14.962H6.87581C5.6162 14.962 4.63284 14.4833 3.96986 13.7357C3.31561 12.998 2.99998 12.0296 3 11.0787C3.00002 10.1277 3.31567 9.15933 3.96983 8.42164C4.54616 7.77173 5.36462 7.325 6.39615 7.21942C6.57686 6.34712 7.21989 5.78487 7.93298 5.54638C8.46869 5.36721 9.09521 5.35442 9.63845 5.55106C10.4365 2.8379 13.0654 1.72072 15.3685 2.05855C16.6274 2.24321 17.8345 2.86273 18.6346 3.92723C19.391 4.93355 19.7478 6.28992 19.4937 7.94045C20.8139 8.99351 21.2364 10.6586 20.878 12.0889C20.4896 13.6389 19.1783 14.9357 17.1312 14.9357H15.7934C15.501 14.9357 15.2639 14.6986 15.2639 14.4062C15.2639 14.1138 15.501 13.8768 15.7934 13.8768H17.1312C18.6519 13.8768 19.5704 12.9511 19.8509 11.8315C20.1369 10.6903 19.7536 9.37005 18.6209 8.61295C18.4428 8.49393 18.354 8.27931 18.3959 8.06925C18.7054 6.51759 18.3887 5.36236 17.7882 4.5634C17.1807 3.75517 16.2416 3.25679 15.2148 3.10618ZM12.6716 10.7733C12.964 10.7733 13.2011 11.0103 13.2011 11.3027V20.3097L15.6665 17.8442C15.8732 17.6375 16.2085 17.6375 16.4152 17.8442C16.622 18.051 16.622 18.3862 16.4152 18.5929L13.046 21.9622C12.8392 22.1689 12.504 22.1689 12.2973 21.9622L8.92806 18.5929C8.72131 18.3862 8.72131 18.051 8.92806 17.8442C9.13481 17.6375 9.47002 17.6375 9.67677 17.8442L12.1422 20.3097V11.3027C12.1422 11.0103 12.3792 10.7733 12.6716 10.7733Z" fill="#676767"/>
</svg>
