<svg width="77" height="130" viewBox="0 0 77 130" fill="none" xmlns="http://www.w3.org/2000/svg">
<path d="M5 96.1328H72C74.7614 96.1328 77 93.8942 77 91.1328V16.1328L60 0.132812H5C2.23858 0.132812 0 2.37139 0 5.13281V91.1328C0 93.8942 2.23858 96.1328 5 96.1328Z" fill="#ACADB5"/>
<path d="M20.5551 116.933H21.7231V128.133H20.7471L13.5471 119.045V128.133H12.3631V116.933H13.3391L20.5551 126.021V116.933ZM27.0267 121.365C27.5547 120.245 28.6267 119.653 30.1787 119.653V120.757C30.0827 120.757 29.9867 120.741 29.9067 120.741C28.1467 120.741 27.0747 121.861 27.0747 123.845V128.133H25.9387V119.717H27.0267V121.365ZM33.1163 128.213C32.6523 128.213 32.2683 127.829 32.2683 127.333C32.2683 126.837 32.6523 126.469 33.1163 126.469C33.5803 126.469 33.9803 126.837 33.9803 127.333C33.9803 127.829 33.5803 128.213 33.1163 128.213ZM45.8349 128.133H44.4589L40.8429 123.205L37.2429 128.133H35.8829L40.1389 122.373L36.1549 116.933H37.5149L40.8909 121.509L44.2509 116.933H45.5309L41.5629 122.341L45.8349 128.133ZM48.3443 128.133V116.933H49.5283V127.109H55.8003V128.133H48.3443ZM61.5292 128.229C59.8492 128.229 58.2012 127.637 57.3692 126.773L57.8332 125.861C58.6332 126.645 60.0572 127.221 61.5292 127.221C63.6252 127.221 64.5372 126.341 64.5372 125.237C64.5372 122.165 57.6412 124.053 57.6412 119.909C57.6412 118.261 58.9212 116.837 61.7692 116.837C63.0332 116.837 64.3452 117.205 65.2412 117.829L64.8412 118.773C63.8812 118.149 62.7612 117.845 61.7692 117.845C59.7212 117.845 58.8092 118.757 58.8092 119.877C58.8092 122.949 65.7052 121.093 65.7052 125.173C65.7052 126.821 64.3932 128.229 61.5292 128.229Z" fill="#232323"/>
<path d="M33.6241 40.1328H32.3341L28.9441 35.5128L25.5691 40.1328H24.2941L28.2841 34.7328L24.5491 29.6328H25.8241L28.9891 33.9228L32.1391 29.6328H33.3391L29.6191 34.7028L33.6241 40.1328ZM35.9766 40.1328V29.6328H37.0866V39.1728H42.9666V40.1328H35.9766ZM48.3374 40.2228C46.7624 40.2228 45.2174 39.6678 44.4374 38.8578L44.8724 38.0028C45.6224 38.7378 46.9574 39.2778 48.3374 39.2778C50.3024 39.2778 51.1574 38.4528 51.1574 37.4178C51.1574 34.5378 44.6924 36.3078 44.6924 32.4228C44.6924 30.8778 45.8924 29.5428 48.5624 29.5428C49.7474 29.5428 50.9774 29.8878 51.8174 30.4728L51.4424 31.3578C50.5424 30.7728 49.4924 30.4878 48.5624 30.4878C46.6424 30.4878 45.7874 31.3428 45.7874 32.3928C45.7874 35.2728 52.2524 33.5328 52.2524 37.3578C52.2524 38.9028 51.0224 40.2228 48.3374 40.2228Z" fill="white"/>
<path d="M65 16.1328H77L60 0.132812L60 11.1328C60 13.8942 62.2386 16.1328 65 16.1328Z" fill="#FFD600"/>
<path d="M56 69.6328L21 69.6328" stroke="white"/>
<path d="M32.5 77.1328L32.5 53.1328" stroke="white"/>
<path d="M44.5 77.1328L44.5 53.1328" stroke="white"/>
<path d="M56 61.6328L21 61.6328" stroke="white"/>
<rect x="20.5" y="53.6328" width="36" height="23" rx="1.5" stroke="white"/>
</svg>
