<svg width="24" height="22" viewBox="0 0 24 22" fill="none" xmlns="http://www.w3.org/2000/svg">
<path d="M4.74063 17.1328H7.89701L17.3736 17.0953H19.2689C24.323 17.0953 25.5866 10.7473 21.796 8.19325C23.6916 -1.38831 10.4242 -2.66326 9.15981 5.63775C7.89672 4.36136 4.73979 5.00019 4.73979 7.55351C-1.5795 7.55351 -1.58064 17.1328 4.74063 17.1328Z" fill="#FFD600"/>
<path d="M12.5 21.1328C12.5 21.409 12.7239 21.6328 13 21.6328C13.2761 21.6328 13.5 21.409 13.5 21.1328L12.5 21.1328ZM13.3536 8.77926C13.1583 8.584 12.8417 8.584 12.6464 8.77926L9.46447 11.9612C9.2692 12.1565 9.2692 12.4731 9.46447 12.6683C9.65973 12.8636 9.97631 12.8636 10.1716 12.6683L13 9.83992L15.8284 12.6683C16.0237 12.8636 16.3403 12.8636 16.5355 12.6683C16.7308 12.4731 16.7308 12.1565 16.5355 11.9612L13.3536 8.77926ZM13.5 21.1328L13.5 9.13281L12.5 9.13281L12.5 21.1328L13.5 21.1328Z" fill="#232323"/>
</svg>
